<svg xmlns="http://www.w3.org/2000/svg" viewBox="0 0 1200 760" role="img" aria-labelledby="title desc">
  <title id="title">Portfolio interface visual</title>
  <desc id="desc">Abstract dark portfolio interface with editorial panels and project cards.</desc>
  <defs>
    <linearGradient id="bg" x1="0" y1="0" x2="1" y2="1">
      <stop offset="0" stop-color="#07080d"/>
      <stop offset="1" stop-color="#111528"/>
    </linearGradient>
    <linearGradient id="accent" x1="0" y1="0" x2="1" y2="0">
      <stop offset="0" stop-color="#5a78ff"/>
      <stop offset="1" stop-color="#8565ff"/>
    </linearGradient>
  </defs>
  <rect width="1200" height="760" rx="36" fill="url(#bg)"/>
  <rect x="72" y="64" width="1056" height="632" rx="24" fill="#090b12" stroke="#30364a"/>
  <circle cx="112" cy="104" r="7" fill="#5a78ff"/>
  <rect x="138" y="98" width="84" height="12" rx="6" fill="#c7ccda" opacity=".72"/>
  <g opacity=".62" fill="#777f94">
    <rect x="756" y="100" width="62" height="8" rx="4"/>
    <rect x="842" y="100" width="72" height="8" rx="4"/>
    <rect x="938" y="100" width="58" height="8" rx="4"/>
  </g>
  <rect x="112" y="176" width="480" height="38" rx="8" fill="#f1f3f8"/>
  <rect x="112" y="232" width="366" height="18" rx="7" fill="#9aa2b6" opacity=".78"/>
  <rect x="112" y="268" width="420" height="12" rx="6" fill="#596178" opacity=".7"/>
  <rect x="112" y="306" width="144" height="42" rx="10" fill="url(#accent)"/>
  <rect x="660" y="168" width="400" height="228" rx="20" fill="#111522" stroke="#343b52"/>
  <path d="M700 338c82-126 210-134 320-48" fill="none" stroke="url(#accent)" stroke-width="4" opacity=".9"/>
  <circle cx="950" cy="264" r="70" fill="#171d31" stroke="#5a78ff" stroke-opacity=".45"/>
  <g transform="translate(112 442)">
    <rect width="292" height="184" rx="16" fill="#10131d" stroke="#2f3548"/>
    <rect x="20" y="20" width="252" height="84" rx="12" fill="#171b27"/>
    <rect x="20" y="124" width="148" height="12" rx="6" fill="#dfe3ed" opacity=".78"/>
    <rect x="20" y="148" width="210" height="8" rx="4" fill="#687086"/>
  </g>
  <g transform="translate(428 442)">
    <rect width="292" height="184" rx="16" fill="#10131d" stroke="#2f3548"/>
    <rect x="20" y="20" width="252" height="84" rx="12" fill="#171b27"/>
    <circle cx="146" cy="62" r="34" fill="#202946"/>
    <circle cx="146" cy="62" r="20" fill="none" stroke="#8565ff" stroke-width="3"/>
    <rect x="20" y="124" width="174" height="12" rx="6" fill="#dfe3ed" opacity=".78"/>
    <rect x="20" y="148" width="196" height="8" rx="4" fill="#687086"/>
  </g>
  <g transform="translate(744 442)">
    <rect width="316" height="184" rx="16" fill="#10131d" stroke="#2f3548"/>
    <rect x="20" y="20" width="276" height="84" rx="12" fill="#171b27"/>
    <path d="M46 84c56-48 112-68 224-28" fill="none" stroke="#5a78ff" stroke-width="3" opacity=".9"/>
    <rect x="20" y="124" width="162" height="12" rx="6" fill="#dfe3ed" opacity=".78"/>
    <rect x="20" y="148" width="224" height="8" rx="4" fill="#687086"/>
  </g>
</svg>